HIERARCHY
ROOT Pelvis
{
	OFFSET 0.000000 0.000000 0.000000
	CHANNELS 6 Xposition Yposition Zposition Xrotation Yrotation Zrotation
	JOINT LeftUpLeg_virtual
	{
		OFFSET 0.000000 0.000000 0.000000
		CHANNELS 3 Xrotation Yrotation Zrotation
		JOINT LeftUpLeg
		{
			OFFSET 18.735201 -5.666702 -4.541200
			CHANNELS 3 Xrotation Yrotation Zrotation
			JOINT LeftLeg
			{
				OFFSET -0.021200 -31.938179 0.493100
				CHANNELS 3 Xrotation Yrotation Zrotation
				JOINT LeftFoot
				{
					OFFSET 0.021200 -31.938179 -4.336299
					CHANNELS 3 Xrotation Yrotation Zrotation
					JOINT LeftToeBase
					{
						OFFSET 0.943001 -26.722000 15.023500
						CHANNELS 3 Xrotation Yrotation Zrotation
						End Site
						{
							OFFSET 0 0 0
						}
					}
				}
			}
		}
	}
	JOINT RightUpLeg_virtual
	{
		OFFSET 0.000000 0.000000 0.000000
		CHANNELS 3 Xrotation Yrotation Zrotation
		JOINT RightUpLeg
		{
			OFFSET -18.735201 -5.666702 -4.541200
			CHANNELS 3 Xrotation Yrotation Zrotation
			JOINT RightLeg
			{
				OFFSET 0.018946 -31.938133 0.493100
				CHANNELS 3 Xrotation Yrotation Zrotation
				JOINT RightFoot
				{
					OFFSET -0.018946 -31.938126 -4.336299
					CHANNELS 3 Xrotation Yrotation Zrotation
					JOINT RightToeBase
					{
						OFFSET -0.943001 -26.722004 15.023500
						CHANNELS 3 Xrotation Yrotation Zrotation
						End Site
						{
							OFFSET 0 0 0
						}
					}
				}
			}
		}
	}
	JOINT Hips_virtual
	{
		OFFSET 0.000000 0.000000 0.000000
		CHANNELS 3 Xrotation Yrotation Zrotation
		JOINT Hips
		{
			OFFSET -0.000000 -0.000000 -0.000000
			CHANNELS 3 Xrotation Yrotation Zrotation
			JOINT Spine
			{
				OFFSET 0.000000 10.199997 -0.299500
				CHANNELS 3 Xrotation Yrotation Zrotation
				JOINT Spine1
				{
					OFFSET 0.000000 11.900002 -1.516600
					CHANNELS 3 Xrotation Yrotation Zrotation
					JOINT Spine2
					{
						OFFSET 0.000000 13.600006 -2.842500
						CHANNELS 3 Xrotation Yrotation Zrotation
						JOINT Neck_virtual
						{
							OFFSET 0.000000 0.000000 0.000000
							CHANNELS 3 Xrotation Yrotation Zrotation
							JOINT Neck
							{
								OFFSET 0.000000 9.624100 -2.890100
								CHANNELS 3 Xrotation Yrotation Zrotation
								JOINT Head
								{
									OFFSET 0.000000 14.068802 -1.351900
									CHANNELS 3 Xrotation Yrotation Zrotation
									End Site
									{
										OFFSET 0 0 0
									}
								}
							}
						}
						JOINT LeftShoulder_virtual
						{
							OFFSET 0.000000 0.000000 0.000000
							CHANNELS 3 Xrotation Yrotation Zrotation
							JOINT LeftShoulder
							{
								OFFSET 15.263000 10.923401 -0.547700
								CHANNELS 3 Xrotation Yrotation Zrotation
								JOINT LeftArm
								{
									OFFSET 25.438599 -2.830597 -13.032500
									CHANNELS 3 Xrotation Yrotation Zrotation
									JOINT LeftForeArm
									{
										OFFSET 29.960503 0.000000 0.000000
										CHANNELS 3 Xrotation Yrotation Zrotation
										JOINT LeftHand
										{
											OFFSET 27.849251 0.000000 0.000000
											CHANNELS 3 Xrotation Yrotation Zrotation
											End Site
											{
												OFFSET 0 0 0
											}
										}
									}
								}
							}
						}
						JOINT RightShoulder_virtual
						{
							OFFSET 0.000000 0.000000 0.000000
							CHANNELS 3 Xrotation Yrotation Zrotation
							JOINT RightShoulder
							{
								OFFSET -15.263000 10.923401 -0.547700
								CHANNELS 3 Xrotation Yrotation Zrotation
								JOINT RightArm
								{
									OFFSET -25.438599 -2.830597 -13.032500
									CHANNELS 3 Xrotation Yrotation Zrotation
									JOINT RightForeArm
									{
										OFFSET -29.960503 0.000000 0.000000
										CHANNELS 3 Xrotation Yrotation Zrotation
										JOINT RightHand
										{
											OFFSET -27.849251 0.000000 0.000000
											CHANNELS 3 Xrotation Yrotation Zrotation
											End Site
											{
												OFFSET 0 0 0
											}
										}
									}
								}
							}
						}
					}
				}
			}
		}
	}
}
MOTION
Frames: 9
Frame Time: 0.03333333
2.215365 79.334656 8.078396 0.000000 0.000000 0.000000 -20.185007 -70.014650 -22.098268 -57.508349 -5.584328 31.155997 52.527133 8.187583 10.677552 15.052487 11.958776 -21.266279 0.000000 0.000000 0.000000 -20.185007 -70.014650 -22.098268 -31.332909 -11.478614 -25.398736 68.082130 10.018558 -8.880936 -29.773030 -5.626362 16.368210 0.000000 0.000000 0.000000 -20.185007 -70.014650 -22.098268 -0.000001 0.000001 0.000000 5.963701 -7.178122 -3.856638 12.176873 -15.441891 0.092223 0.000000 0.000000 0.000000 11.624251 -15.837259 0.142072 -2.616911 5.567663 -2.265102 0.000000 0.000000 0.000000 11.624251 -15.837259 0.142072 0.633438 -1.077305 17.113643 0.622214 -52.281126 2.559583 -0.000003 -32.040312 -0.000003 0.000000 0.000000 0.000000 11.624251 -15.837259 0.142072 1.399001 3.759367 -11.474280 -3.418091 -16.298346 23.882409 -179.999868 75.894590 179.999882 0.000000 0.000000 0.000000 
1.766626 78.737793 10.266409 0.000000 0.000000 0.000000 -18.211718 -68.839967 -21.290130 -57.770047 -6.043693 34.139160 55.768088 8.191331 10.449387 12.495496 12.170145 -20.192090 0.000000 0.000000 0.000000 -18.211718 -68.839967 -21.290130 -29.499577 -12.429258 -26.065737 66.881151 9.779879 -8.984289 -30.207198 -6.047406 17.467963 0.000000 0.000000 0.000000 -18.211718 -68.839967 -21.290130 -0.000001 -0.000001 -0.000000 5.744580 -6.970461 -3.572470 11.792647 -15.159893 0.135019 0.000000 0.000000 0.000000 11.299798 -15.479609 0.202147 -2.651817 5.499611 -1.851094 0.000000 0.000000 0.000000 11.299798 -15.479609 0.202147 0.679933 -1.149581 17.434934 1.611608 -43.986849 3.346501 -0.000007 -28.023337 -0.000007 0.000000 0.000000 0.000000 11.299798 -15.479609 0.202147 1.344848 3.504350 -11.402495 -20.573606 -17.699984 16.212492 -179.999882 74.893318 179.999882 0.000000 0.000000 0.000000 
1.138112 78.067314 12.831551 0.000000 0.000000 0.000000 -14.564306 -67.301330 -19.078279 -59.040551 -6.888732 36.457525 59.408480 8.109565 10.109223 10.635457 12.469655 -19.478728 0.000000 0.000000 0.000000 -14.564306 -67.301330 -19.078279 -27.294081 -13.860183 -26.705859 64.850119 9.277140 -9.061853 -30.582920 -6.607233 18.944448 0.000000 0.000000 0.000000 -14.564306 -67.301330 -19.078279 0.000000 0.000000 0.000000 5.430573 -6.410835 -3.098865 11.138556 -14.116492 0.253235 0.000000 0.000000 0.000000 10.737723 -14.364810 0.322549 -2.699028 5.365728 -1.469040 0.000000 0.000000 0.000000 10.737723 -14.364810 0.322549 0.813411 -1.445722 17.871233 5.397409 -35.375961 5.103416 -0.000008 -24.491279 -0.000001 0.000000 0.000000 0.000000 10.737723 -14.364810 0.322549 1.296131 3.234249 -10.860322 -39.743710 -18.448891 9.384011 179.998776 77.702424 -179.998789 0.000000 0.000000 0.000000 
0.686403 77.423218 15.663845 0.000000 0.000000 0.000000 -10.547351 -64.764462 -16.874421 -61.141190 -7.937184 37.554077 61.898152 8.106787 9.888229 10.145659 11.637398 -18.026522 0.000000 0.000000 0.000000 -10.547351 -64.764462 -16.874421 -23.919210 -16.144062 -27.070850 61.325823 8.342361 -8.844771 -30.393850 -7.267106 20.920070 0.000000 0.000000 0.000000 -10.547351 -64.764462 -16.874421 0.000001 0.000000 0.000000 4.952233 -5.507106 -2.544071 10.094879 -12.296643 0.355495 0.000000 0.000000 0.000000 9.806256 -12.480300 0.420179 -2.735956 5.163706 -1.155136 0.000000 0.000000 0.000000 9.806256 -12.480300 0.420179 0.885146 -1.621646 18.077071 10.226549 -27.632456 6.259780 0.000007 -23.168079 0.000005 0.000000 0.000000 0.000000 9.806256 -12.480300 0.420179 1.178070 2.764230 -10.336563 -58.684214 -18.567115 -1.143242 -179.999349 82.928899 179.999349 0.000000 0.000000 0.000000 
0.295289 76.785332 18.621080 0.000000 0.000000 0.000000 -6.534617 -61.232619 -14.974947 -63.995867 -8.962479 37.052397 62.617385 8.312214 10.061045 10.991227 9.262532 -15.523591 0.000000 0.000000 0.000000 -6.534617 -61.232619 -14.974947 -19.155479 -19.234595 -26.853756 56.152495 6.981361 -8.222627 -29.584691 -7.980935 23.346075 0.000000 0.000000 0.000000 -6.534617 -61.232619 -14.974947 0.000000 -0.000003 0.000000 4.325785 -4.321923 -2.106676 8.701188 -9.856096 0.265581 0.000000 0.000000 0.000000 8.520513 -9.980536 0.315991 -2.738506 4.881873 -0.886721 0.000000 0.000000 0.000000 8.520513 -9.980536 0.315991 0.784076 -1.417188 17.943870 13.169721 -21.211576 5.379922 0.000014 -26.235919 0.000010 0.000000 0.000000 0.000000 8.520513 -9.980536 0.315991 0.980723 2.110799 -10.219362 -76.352144 -15.445515 -12.526931 -179.999144 88.092378 179.999172 0.000000 0.000000 0.000000 
-0.347660 76.248634 21.719814 0.000000 0.000000 0.000000 -2.266877 -56.970584 -12.984294 -66.557728 -10.612079 36.255655 61.824960 7.348157 10.269906 13.873576 6.115730 -16.898243 0.000000 0.000000 0.000000 -2.266877 -56.970584 -12.984294 -13.132616 -23.122265 -25.435645 49.088631 5.125924 -7.643138 -28.203740 -8.476062 25.602889 0.000000 0.000000 0.000000 -2.266877 -56.970584 -12.984294 0.000000 0.000004 0.000000 3.658173 -2.952043 -2.038475 7.166086 -7.066757 -0.222286 0.000000 0.000000 0.000000 7.062095 -7.138481 -0.215690 -2.684867 4.497817 -0.596571 0.000000 0.000000 0.000000 7.062095 -7.138481 -0.215690 0.539485 -0.874746 17.751207 13.358561 -15.582484 2.734236 -0.000010 -32.757679 -0.000009 0.000000 0.000000 0.000000 7.062095 -7.138481 -0.215690 0.787084 1.519818 -10.424311 -92.010967 -9.986333 -17.700807 -0.000470 89.137473 0.000461 0.000000 0.000000 0.000000 
-1.188566 76.059090 24.985689 0.000000 0.000000 0.000000 1.778453 -51.787990 -11.162045 -69.173813 -12.869714 33.933770 63.300158 7.343727 10.285696 11.584570 3.701133 -20.271814 0.000000 0.000000 0.000000 1.778453 -51.787990 -11.162045 -5.863864 -27.863110 -21.514864 40.901591 2.077950 -7.976324 -27.115759 -8.085021 25.202555 0.000000 0.000000 0.000000 1.778453 -51.787990 -11.162045 0.000000 -0.000002 0.000000 3.088778 -1.529742 -2.440328 5.783919 -4.216108 -1.231312 0.000000 0.000000 0.000000 5.711968 -4.246431 -1.326192 -2.565541 3.984330 -0.217503 0.000000 0.000000 0.000000 5.711968 -4.246431 -1.326192 0.269586 -0.279409 17.873878 12.578721 -10.906968 0.212791 0.000001 -38.917796 0.000001 0.000000 0.000000 0.000000 5.711968 -4.246431 -1.326192 0.755795 1.334819 -10.374304 -106.214742 -6.038762 -15.526130 -0.000541 89.484897 0.000451 0.000000 0.000000 0.000000 
-2.118667 76.065857 28.191553 0.000000 0.000000 0.000000 5.554216 -45.463413 -9.543653 -73.539977 -14.796440 27.755881 64.672425 8.427810 10.442588 10.205000 2.152011 -18.570403 0.000000 0.000000 0.000000 5.554216 -45.463413 -9.543653 1.409218 -31.945727 -15.520560 34.193839 -1.031724 -9.373511 -24.957451 -6.647754 22.807079 0.000000 0.000000 0.000000 5.554216 -45.463413 -9.543653 0.000000 0.000002 0.000000 2.702987 -0.153927 -3.314366 4.808790 -1.512957 -2.724323 0.000000 0.000000 0.000000 4.729425 -1.522879 -2.990509 -2.395429 3.321727 0.270428 0.000000 0.000000 0.000000 4.729425 -1.522879 -2.990509 0.052599 0.164818 18.356944 12.476109 -8.989718 -0.520096 0.000002 -41.871204 0.000001 0.000000 0.000000 0.000000 4.729425 -1.522879 -2.990509 1.006283 1.840401 -9.467820 -114.562223 -8.217360 -18.843549 179.999950 86.497816 -179.999964 0.000000 0.000000 0.000000 
-2.785912 76.234886 31.021185 0.000000 0.000000 0.000000 8.955619 -38.067738 -8.289833 -77.667447 -15.710314 20.431539 64.139793 9.022239 10.455836 10.046280 0.928409 -16.485382 0.000000 0.000000 0.000000 8.955619 -38.067738 -8.289833 5.870142 -32.936422 -11.382601 32.163897 -0.171070 -9.276859 -17.362648 -4.700646 21.941831 0.000000 0.000000 0.000000 8.955619 -38.067738 -8.289833 0.000000 0.000001 0.000000 2.491278 1.227904 -4.523639 4.349399 0.957735 -4.493974 0.000000 0.000000 0.000000 4.241989 0.937569 -4.972878 -2.217661 2.511644 0.823694 0.000000 0.000000 0.000000 4.241989 0.937569 -4.972878 -0.127891 0.544287 18.753157 12.887668 -11.384530 0.024961 -0.000012 -42.021755 0.000005 0.000000 0.000000 0.000000 4.241989 0.937569 -4.972878 1.446534 3.026963 -7.727271 -119.819522 -6.218597 -22.720344 -179.999513 87.086777 179.999418 0.000000 0.000000 0.000000 
